<svg width="32" height="32" viewBox="0 0 32 32" fill="none" xmlns="http://www.w3.org/2000/svg">
<path d="M29.0013 16.2886C29.0013 15.2197 28.9128 14.4397 28.7212 13.6309H16.2666V18.4552H23.5772C23.4299 19.6542 22.6339 21.4597 20.8652 22.673L20.8404 22.8345L24.7783 25.8242L25.0512 25.8509C27.5568 23.5831 29.0013 20.2464 29.0013 16.2886Z" fill="#4285F4"/>
<path d="M16.2659 28.9998C19.8474 28.9998 22.8542 27.8442 25.0504 25.8509L20.8644 22.673C19.7443 23.4386 18.2409 23.973 16.2659 23.973C12.758 23.973 9.78066 21.7053 8.71934 18.5708L8.56378 18.5837L4.46908 21.6893L4.41553 21.8352C6.5969 26.0819 11.0776 28.9998 16.2659 28.9998Z" fill="#34A853"/>
<path d="M8.71973 18.571C8.43969 17.7622 8.27763 16.8954 8.27763 15.9999C8.27763 15.1043 8.4397 14.2377 8.705 13.4288L8.69758 13.2565L4.55156 10.1011L4.41591 10.1643C3.51685 11.9266 3.00098 13.9055 3.00098 15.9999C3.00098 18.0944 3.51685 20.0732 4.41591 21.8354L8.71973 18.571Z" fill="#FBBC05"/>
<path d="M16.2659 8.02663C18.7568 8.02663 20.4371 9.08107 21.3951 9.96224L25.1389 6.38C22.8396 4.28556 19.8475 3 16.2659 3C11.0777 3 6.59691 5.91775 4.41553 10.1644L8.70463 13.4289C9.78069 10.2944 12.758 8.02663 16.2659 8.02663Z" fill="#EB4335"/>
</svg>
