<?xml version="1.0" standalone="no"?>
<!DOCTYPE svg PUBLIC "-//W3C//DTD SVG 20010904//EN"
 "http://www.w3.org/TR/2001/REC-SVG-20010904/DTD/svg10.dtd">
<svg version="1.0" xmlns="http://www.w3.org/2000/svg"
 width="200.000000pt" height="200.000000pt" viewBox="0 0 200.000000 200.000000"
 preserveAspectRatio="xMidYMid meet">

<g transform="translate(0.000000,200.000000) scale(0.100000,-0.100000)"
fill="#000000" stroke="none">
<path d="M0 1000 l0 -1000 1000 0 1000 0 0 1000 0 1000 -1000 0 -1000 0 0
-1000z m669 28 c12 23 24 42 26 42 3 0 4 -26 3 -57 l-1 -58 -6 45 -6 45 -14
-32 c-16 -40 -28 -41 -44 -6 l-12 27 -6 -39 c-5 -35 -6 -33 -7 20 l-1 60 23
-45 24 -44 21 42z m-234 0 c-11 -55 -16 -68 -26 -68 -6 0 -7 15 -4 38 9 53 13
62 25 62 8 0 9 -11 5 -32z m468 -60 c8 -5 7 -8 -4 -8 -18 0 -31 61 -20 90 3 8
7 -5 9 -30 2 -24 9 -48 15 -52z m-503 54 c0 -22 -17 -48 -25 -40 -10 10 5 69
16 62 5 -3 9 -13 9 -22z m-40 -12 c0 -11 -4 -20 -10 -20 -5 0 -10 9 -10 20 0
11 5 20 10 20 6 0 10 -9 10 -20z m110 6 c0 -16 -18 -31 -27 -22 -8 8 5 36 17
36 5 0 10 -6 10 -14z m62 5 c-21 -13 -10 -44 18 -53 23 -6 23 -7 -5 -5 -20 1
-31 8 -33 20 -5 25 5 47 20 47 10 0 10 -2 0 -9z m38 -6 c0 -8 -2 -15 -4 -15
-2 0 -6 7 -10 15 -3 8 -1 15 4 15 6 0 10 -7 10 -15z m218 -23 c3 -30 1 -32
-27 -32 -24 0 -31 4 -31 20 0 14 7 20 21 20 15 0 19 4 15 16 -4 10 -1 14 6 12
7 -3 14 -19 16 -36z m50 26 c-9 -7 -19 -24 -21 -38 -3 -18 -5 -14 -6 13 -1 32
2 37 21 37 19 0 20 -1 6 -12z"/>
<path d="M740 980 c0 -5 7 -10 15 -10 8 0 15 5 15 10 0 6 -7 10 -15 10 -8 0
-15 -4 -15 -10z"/>
</g>
</svg>
